<svg id="Capa_1" enable-background="new 0 0 504 504" height="512" viewBox="0 0 504 504" width="512" xmlns="http://www.w3.org/2000/svg"><g><path d="m319.461 186.401c19.389.002 35.106 15.721 35.104 35.111-.001 9.325-3.712 18.267-10.314 24.853-6.547 6.621-15.479 10.336-24.791 10.311 19.406.013 35.126 15.756 35.113 35.162-.013 19.387-15.726 35.099-35.113 35.113 19.406.013 35.126 15.756 35.113 35.162-.013 19.387-15.726 35.099-35.113 35.113h3.51c17.451-.007 31.603 14.135 31.609 31.586v.012 43.587c.023 17.425-14.084 31.569-31.508 31.592-.028 0-.055 0-.083 0h-141.953c-17.425.023-31.569-14.084-31.592-31.508 0-.028 0-.055 0-.083v-43.587c.003-17.446 14.145-31.588 31.592-31.592h3.558c-19.406.013-35.148-15.707-35.162-35.113-.013-19.406 15.707-35.148 35.113-35.162h.049c-19.406.013-35.148-15.707-35.162-35.113-.013-19.406 15.707-35.148 35.113-35.162h.049c-19.406 0-35.137-15.731-35.137-35.137s15.732-35.137 35.137-35.137c-19.399.026-35.147-15.679-35.173-35.078 0-.008 0-.016 0-.024v-13.531c.001-8.455 3.463-16.542 9.582-22.377l73.002-70.132 20.035-19.235 93.02 89.367c6.062 5.867 9.486 13.941 9.487 22.377v13.531c-.008 19.373-15.709 35.081-35.085 35.094z" fill="#dbd8dd"/><path d="m279.391 186.401c19.406 0 35.137 15.731 35.137 35.137s-15.732 35.137-35.137 35.137c19.406-.013 35.148 15.707 35.162 35.113s-15.707 35.148-35.113 35.162c-.016 0-.033 0-.049 0 19.406-.013 35.148 15.707 35.162 35.113s-15.707 35.148-35.113 35.162c-.016 0-.033 0-.049 0h3.558c17.435.029 31.562 14.156 31.592 31.592v43.587c-.003 17.446-14.145 31.588-31.592 31.592h-101.914c-17.425.023-31.569-14.084-31.592-31.509 0-.028 0-.055 0-.083v-43.581c.003-17.446 14.145-31.588 31.592-31.592h3.558c-19.406.013-35.148-15.707-35.162-35.113-.013-19.406 15.707-35.148 35.113-35.162h.049c-19.406.013-35.148-15.707-35.162-35.113-.013-19.406 15.707-35.148 35.113-35.162h.049c-19.406 0-35.137-15.731-35.137-35.137s15.732-35.137 35.137-35.137c-19.399.026-35.147-15.679-35.173-35.078 0-.008 0-.016 0-.024v-13.531c.001-8.455 3.463-16.542 9.582-22.377l73.002-70.132 72.978 70.132c6.119 5.836 9.581 13.922 9.582 22.377v13.531c-.016 19.399-15.756 35.112-35.155 35.096-.007 0-.012 0-.018 0z" fill="#eeefee"/><path d="m314.563 22.229v18.09c-.029 12.295-10.011 22.242-22.306 22.229h-81.386c-12.274.007-22.228-9.938-22.235-22.211 0-.006 0-.012 0-.018v-18.09c-.003-12.273 9.944-22.226 22.217-22.229h.018 81.386c12.295-.013 22.277 9.934 22.306 22.229z" fill="#419be9"/><path d="m210.865 0h49.949c12.277 0 22.229 9.952 22.229 22.229v18.067c0 12.277-9.952 22.229-22.229 22.229h-49.949c-12.277 0-22.229-9.952-22.229-22.229v-18.067c0-12.277 9.952-22.229 22.229-22.229z" fill="#69b0ee"/></g></svg>