<svg id="Capa_1" data-name="Capa 1" xmlns="http://www.w3.org/2000/svg" viewBox="0 0 512 509.67"><defs><style>.cls-1{fill:#44569b;}.cls-2{fill:#203f7c;}.cls-3{fill:#312b6f;}.cls-4{fill:#f0f5ff;}.cls-5{fill:#e0ebfe;}.cls-6{fill:#ccddfe;}.cls-7{fill:#dbe7fe;}.cls-8{fill:#f5fbff;}.cls-9{fill:#fc2b2b;}</style></defs><title>whale</title><path class="cls-1" d="M226.54,243.15A70.6,70.6,0,0,1,223.24,102a77.79,77.79,0,0,0,77.37,70.66H347v-15a85.68,85.68,0,0,0-34-68.35,75.75,75.75,0,0,0,34-63.19v-25h-41.9a82.31,82.31,0,0,0-81.37,70.75h-.81v0h-2.52A220.39,220.39,0,0,0,0,292.33,216.55,216.55,0,0,0,103.36,477.68L161,510.84l104.71-.23c75.51,0,246.33-61.43,246.33-136.94V344L500.49,329.3,512,313.55V243.83Z" transform="translate(0 -1.16)"/><path class="cls-2" d="M160.89,510.84H93.67v-31.9a112.1,112.1,0,0,1,112.1-112.1H273v31.89A112.11,112.11,0,0,1,160.89,510.84Z" transform="translate(0 -1.16)"/><path class="cls-3" d="M512,243.83l-199-.47V505.15c83.07-16.62,199-69.27,199-131.48V344l-11.51-14.64L512,313.55Z" transform="translate(0 -1.16)"/><path class="cls-4" d="M313,343.7c7.84,0,15.36-6.9,15-15s-6.58-15-15-15c-7.84,0-15.36,6.89-15,15S304.59,343.7,313,343.7Z" transform="translate(0 -1.16)"/><path class="cls-2" d="M352,313.71H512v30H352Z" transform="translate(0 -1.16)"/><path class="cls-5" d="M353.33,382.29C352.9,453.24,295.05,510.84,224,510.84H382.66c71.06,0,128.9-57.6,129.33-128.55Z" transform="translate(0 -1.16)"/><path class="cls-6" d="M353.33,382.29a128.94,128.94,0,0,1-40.34,93v35.59h69.67c71.06,0,128.9-57.6,129.33-128.55Z" transform="translate(0 -1.16)"/><path class="cls-7" d="M328,328.7c-.36-8.12-6.58-15-15-15v30C320.84,343.7,328.36,336.8,328,328.7Z" transform="translate(0 -1.16)"/><path class="cls-8" d="M408.73,382.29c-.52,70.95-71.49,128.55-142.55,128.55h69.26c71.06,0,128.9-57.6,129.33-128.55Z" transform="translate(0 -1.16)"/><path class="cls-5" d="M408.73,382.29c-.41,55.1-43.31,102.14-95.74,120.41v8.14h22.45c71.06,0,128.9-57.6,129.33-128.55Z" transform="translate(0 -1.16)"/><rect class="cls-9" x="-86.13" y="246.4" width="687.34" height="21.32" rx="5.14" transform="translate(257.2 -107.98) rotate(45)"/><rect class="cls-9" x="-86.88" y="243.03" width="687.34" height="21.32" rx="5.14" transform="translate(617.77 250.34) rotate(135)"/></svg>